<svg xmlns="http://www.w3.org/2000/svg" viewBox="34.26 167 150.4 143.05" fill="none">
  <path
    fill="#000"
    d="M 94.00 303.46 C87.68,299.91 76.09,293.52 68.25,289.26 L 54.00 281.52 L 54.00 261.18 C54.00 249.99 54.35 240.98 54.78 241.17 C55.21 241.35 61.06 244.57 67.78 248.33 L 80.01 255.16 L 83.25 253.20 C85.04 252.13 88.53 250.13 91.00 248.76 C93.47 247.40 97.82 244.90 100.66 243.22 C103.50 241.53 106.09 240.42 106.41 240.74 C107.29 241.62 107.13 310.01 106.25 309.96 C105.84 309.93 100.32 307.01 94.00 303.46 ZM 112.00 274.98 L 112.00 239.92 L 116.75 242.63 C119.36 244.12 121.95 245.66 122.50 246.04 C123.05 246.42 126.20 248.22 129.50 250.03 C132.80 251.84 136.25 253.78 137.17 254.35 C138.44 255.13 139.79 254.74 142.89 252.69 C145.13 251.21 147.14 250.00 147.36 250.00 C147.59 250.00 151.31 247.98 155.63 245.51 C159.96 243.04 163.75 241.01 164.06 241.01 C165.07 240.99 164.50 280.90 163.48 281.84 C162.94 282.33 159.35 284.44 155.50 286.53 C151.65 288.62 141.72 294.02 133.44 298.54 C125.15 303.06 116.94 307.50 115.19 308.40 L 112.00 310.05 L 112.00 274.98 ZM 70.50 244.37 C60.70 238.78 54.06 235.04 43.04 228.93 C38.39 226.35 34.44 223.81 34.26 223.29 C34.03 222.59 52.23 211.84 58.11 209.21 C58.47 209.04 60.98 210.22 63.68 211.81 C66.39 213.41 70.61 215.83 73.05 217.19 C75.50 218.55 83.46 222.97 90.75 227.02 C98.04 231.07 104.00 234.70 104.00 235.08 C104.00 235.85 80.58 249.02 79.30 248.97 C78.86 248.95 74.90 246.88 70.50 244.37 ZM 125.68 242.31 C116.25 237.04 114.13 235.47 115.18 234.51 C116.36 233.45 139.37 220.22 154.24 212.06 L 159.88 208.96 L 163.19 210.81 C165.01 211.82 170.43 214.79 175.24 217.40 C180.04 220.01 184.17 222.47 184.41 222.86 C184.66 223.26 181.40 225.52 177.18 227.90 C153.69 241.11 139.15 248.99 138.38 248.95 C137.89 248.93 132.18 245.94 125.68 242.31 ZM 104.48 228.61 C103.21 226.67 102.93 223.18 103.00 210.36 C103.05 201.64 103.07 194.21 103.05 193.86 C103.02 193.51 99.10 194.09 94.34 195.15 C89.21 196.29 85.31 196.71 84.78 196.18 C83.82 195.22 107.41 167.00 109.17 167.00 C109.72 167.00 111.43 168.46 112.98 170.25 C114.52 172.04 119.87 178.23 124.87 184.00 C133.34 193.79 135.36 197.00 133.06 197.00 C132.06 197.00 119.67 194.25 116.75 193.39 C115.13 192.90 115.00 194.17 115.00 210.36 C115.00 224.93 114.74 228.12 113.43 229.43 C111.01 231.85 106.32 231.42 104.48 228.61 Z"
  />
</svg>
