<?xml version="1.0" encoding="UTF-8"?> <svg xmlns="http://www.w3.org/2000/svg" width="115" height="24" viewBox="0 0 115 24" fill="none"><path d="M9.07213 5.90914H15.9266L14.8635 9.9275C14.7006 10.4862 14.3974 10.9376 13.9536 11.2785C13.5098 11.6194 12.9926 11.7899 12.4084 11.7899H9.22218C8.49427 11.7899 7.85257 11.9982 7.29706 12.4181C6.74155 12.8379 6.35205 13.4061 6.12857 14.1258C5.9881 14.6656 5.97214 15.1769 6.08388 15.6536C6.19562 16.1334 6.39036 16.5595 6.6745 16.9288C6.95864 17.2982 7.3226 17.5949 7.76637 17.8127C8.21013 18.0337 8.69541 18.141 9.22218 18.141H11.1633C11.5272 18.141 11.8241 18.2862 12.0572 18.5766C12.2903 18.867 12.3541 19.1921 12.2551 19.552L11.042 23.9902H8.91889C7.46307 23.9902 6.12219 23.6745 4.89943 23.0463C3.67667 22.415 2.65824 21.5817 1.85052 20.5432C1.0428 19.5046 0.490479 18.3209 0.196762 16.9888C-0.0969552 15.6599 -0.0618368 14.2962 0.302117 12.8947L0.423435 12.4433C0.685227 11.4837 1.09388 10.5999 1.65258 9.78861C2.20809 8.97736 2.86576 8.28922 3.62559 7.71788C4.38543 7.14653 5.22827 6.70461 6.15731 6.38264C7.08635 6.06382 8.05689 5.90283 9.06894 5.90283L9.07213 5.90914Z" fill="#FF6B2B"></path><path d="M12.5293 23.9939L18.5058 1.86292C18.6686 1.3042 18.9719 0.852806 19.4157 0.515049C19.8595 0.174136 20.3767 0.00683594 20.9641 0.00683594H27.3014C28.7572 0.00683594 30.0949 0.322496 31.3208 0.950661C32.5436 1.57882 33.5588 2.41532 34.3697 3.45385C35.1775 4.49237 35.7362 5.67925 36.0394 7.00818C36.3427 8.33711 36.3012 9.70392 35.9181 11.1023L35.7968 11.5537C35.535 12.5133 35.1296 13.3972 34.5836 14.2084C34.0377 15.0196 33.3864 15.7141 32.6266 16.2918C31.8667 16.8726 31.0239 17.3208 30.0949 17.6428C29.1658 17.9616 28.1953 18.1226 27.1832 18.1226H21.692L22.7839 14.0727C22.9467 13.5329 23.25 13.0941 23.6937 12.7532C24.1375 12.4123 24.6547 12.245 25.239 12.245H26.9981C27.726 12.245 28.3773 12.024 28.9551 11.5853C29.533 11.1465 29.9097 10.5751 30.0917 9.87754C30.2321 9.37879 30.2481 8.88636 30.1364 8.40656C30.0246 7.92676 29.8267 7.50377 29.5457 7.13129C29.2616 6.76197 28.8976 6.46209 28.4539 6.23166C28.0101 6.00123 27.5248 5.88759 26.9981 5.88759H23.6012L19.1731 22.1725C19.0102 22.7123 18.7069 23.1511 18.2632 23.492C17.8194 23.8329 17.3118 24.0002 16.7467 24.0002H12.5325L12.5293 23.9939Z" fill="#FF6B2B"></path><path d="M50.3523 12.1779L50.4449 11.8496C50.4864 11.6886 50.4609 11.556 50.3683 11.4456C50.2757 11.3351 50.1512 11.2814 49.9884 11.2814H40.1297C39.7051 11.2814 39.322 11.193 38.9772 11.0099C38.6324 10.83 38.3514 10.5964 38.1279 10.306C37.9045 10.0156 37.7544 9.68101 37.6714 9.30222C37.5916 8.92343 37.6012 8.53201 37.7001 8.13112L38.3067 5.85205H51.6517C52.4818 5.85205 53.2384 6.03198 53.9248 6.39183C54.6112 6.75168 55.1827 7.22202 55.6392 7.79968C56.0958 8.38049 56.4086 9.04338 56.5778 9.79465C56.7502 10.5459 56.7343 11.3193 56.5331 12.1179L54.1355 20.9343C53.8929 21.8339 53.4012 22.5631 52.6637 23.125C51.9263 23.6837 51.0802 23.9646 50.132 23.9646L40.2733 23.9331C39.405 23.9331 38.6036 23.7468 37.8789 23.3775C37.151 23.0082 36.554 22.5189 36.0879 21.9097C35.6218 21.3005 35.2993 20.5997 35.1173 19.8106C34.9354 19.0214 34.9545 18.2165 35.178 17.3958L35.2993 16.9444C35.4398 16.3856 35.6792 15.8648 36.0113 15.385C36.3465 14.9052 36.7328 14.4948 37.1797 14.1539C37.6235 13.813 38.1215 13.551 38.6643 13.3585C39.2102 13.1691 39.7881 13.0744 40.3947 13.0744H48.673L48.0664 15.325C47.9036 15.8648 47.6003 16.3036 47.1565 16.6445C46.7128 16.9854 46.2052 17.1527 45.6401 17.1527H41.9399C41.5951 17.1527 41.3748 17.3231 41.2726 17.6641C41.212 17.885 41.2535 18.0776 41.3939 18.248C41.5344 18.4185 41.7164 18.5037 41.9399 18.5037H47.9132C48.1367 18.5037 48.3282 18.4437 48.491 18.3238C48.6539 18.2038 48.7528 18.0429 48.7943 17.844L48.855 17.6041L50.3395 12.1779H50.3523Z" fill="#FF6B2B"></path><path d="M68.0035 5.90918C69.4784 5.90918 70.8289 6.22484 72.0517 6.853C73.2744 7.48117 74.2897 8.31767 75.1006 9.35619C75.9083 10.3947 76.4606 11.5848 76.7543 12.9263C77.048 14.2647 77.0034 15.6347 76.6171 17.0362L75.1006 22.6739C74.9984 23.0748 74.7813 23.3936 74.4493 23.6335C74.1141 23.8734 73.7469 23.9934 73.3415 23.9934H70.0659C69.6828 23.9934 69.3795 23.8482 69.156 23.5578C68.9325 23.2673 68.8719 22.9422 68.974 22.5824L70.7938 15.7767C70.9343 15.278 70.9502 14.7856 70.8385 14.3057C70.7267 13.8259 70.5288 13.403 70.2479 13.0305C69.9637 12.6612 69.5998 12.3613 69.156 12.1308C68.7122 11.9004 68.227 11.7868 67.7002 11.7868H64.3033L61.3597 22.6739C61.2576 23.0748 61.0405 23.3936 60.7084 23.6335C60.3764 23.8734 59.9965 23.9934 59.5719 23.9934H56.3282C55.9643 23.9934 55.6642 23.8482 55.4343 23.5578C55.2012 23.2673 55.1374 22.9422 55.2363 22.5824L59.7251 5.90918H68.0067H68.0035Z" fill="#FF6B2B"></path><path d="M85.8666 11.6227C85.6239 11.8121 85.4515 12.0583 85.3526 12.3582L83.9893 17.4561C83.9095 17.737 83.9606 17.9958 84.1426 18.2358C84.3245 18.4757 84.5672 18.5956 84.8705 18.5956H97.4269L96.4563 22.1657C96.2935 22.7055 95.9902 23.1443 95.5465 23.4852C95.1027 23.8261 94.5951 23.9934 94.03 23.9934H82.5974C81.7673 23.9934 81.0106 23.8198 80.3242 23.4694C79.6378 23.119 79.0664 22.6487 78.6098 22.0616C78.1533 21.4713 77.8404 20.8021 77.6712 20.054C77.4988 19.3027 77.5243 18.5388 77.7478 17.7591L79.5963 10.9535C79.7975 10.2148 80.1103 9.533 80.5381 8.9143C80.9628 8.29561 81.464 7.7653 82.0387 7.32653C82.6133 6.88776 83.2614 6.54369 83.9797 6.29116C84.6981 6.04179 85.4388 5.91553 86.2082 5.91553H94.3045C95.1346 5.91553 95.8913 6.09545 96.5777 6.45531C97.2641 6.81516 97.8355 7.28549 98.2921 7.86315C98.7454 8.44397 99.0551 9.11317 99.2179 9.87391C99.3808 10.6347 99.3584 11.4017 99.1573 12.1814L98.6113 14.2206C98.3687 15.1202 97.877 15.8462 97.1396 16.3955C96.4021 16.9447 95.5656 17.2193 94.6366 17.2193H85.4771L86.0837 15.0002C86.2241 14.4605 86.5178 14.0217 86.9616 13.6808C87.4054 13.3399 87.9226 13.1726 88.51 13.1726H92.2102C92.555 13.1726 92.7753 13.0021 92.8775 12.6612L92.9988 12.2098C93.0594 11.9888 93.0179 11.79 92.8775 11.61C92.737 11.4301 92.555 11.3417 92.3315 11.3417H86.6902C86.3869 11.3417 86.1124 11.4364 85.8698 11.6258L85.8666 11.6227Z" fill="#FF6B2B"></path><path d="M97.3919 23.9933L103.487 1.35103C103.589 0.950138 103.806 0.628164 104.138 0.375636C104.47 0.126264 104.85 0 105.274 0H108.518C108.901 0 109.211 0.145204 109.444 0.435611C109.677 0.726019 109.741 1.05115 109.642 1.411L105.092 18.1157C104.869 18.9964 104.511 19.7951 104.016 20.5148C103.522 21.2345 102.934 21.85 102.257 22.3582C101.581 22.8664 100.827 23.2673 99.997 23.5577C99.1669 23.8481 98.2986 23.9933 97.3887 23.9933H97.3919Z" fill="#FF6B2B"></path><path d="M110.693 2.10885C110.693 1.74269 110.786 1.39862 110.971 1.0798C111.156 0.760983 111.412 0.508454 111.734 0.322215C112.057 0.135975 112.408 0.0444336 112.781 0.0444336C113.155 0.0444336 113.5 0.135975 113.822 0.319058C114.145 0.502141 114.4 0.75467 114.588 1.07349C114.777 1.3923 114.869 1.73953 114.869 2.10885C114.869 2.47818 114.78 2.80646 114.601 3.12528C114.422 3.44094 114.17 3.69662 113.848 3.88602C113.525 4.07542 113.171 4.17012 112.784 4.17012C112.398 4.17012 112.047 4.07542 111.725 3.88602C111.402 3.69662 111.15 3.4441 110.968 3.12844C110.786 2.81278 110.697 2.47186 110.697 2.10885H110.693ZM110.984 2.10885C110.984 2.42451 111.064 2.72123 111.227 2.99586C111.386 3.27048 111.606 3.48829 111.887 3.64612C112.165 3.80395 112.465 3.88286 112.781 3.88286C113.097 3.88286 113.401 3.80395 113.678 3.64296C113.953 3.48513 114.173 3.26733 114.336 2.99586C114.499 2.72439 114.579 2.42767 114.579 2.1057C114.579 1.78372 114.499 1.49331 114.336 1.21869C114.176 0.947222 113.956 0.729417 113.682 0.56843C113.407 0.407443 113.107 0.328528 112.781 0.328528C112.456 0.328528 112.162 0.407443 111.884 0.56843C111.61 0.72626 111.389 0.944066 111.227 1.21553C111.064 1.487 110.984 1.78372 110.984 2.1057V2.10885ZM113.627 1.61011C113.627 1.75531 113.589 1.88473 113.509 1.99837C113.429 2.11201 113.321 2.19408 113.177 2.2509L113.838 3.33362H113.372L112.797 2.36138H112.424V3.33362H112.012V0.887247H112.737C113.043 0.887247 113.27 0.947222 113.413 1.06717C113.557 1.18712 113.627 1.36705 113.627 1.61011ZM112.424 2.02362H112.724C112.871 2.02362 112.992 1.98575 113.081 1.90999C113.171 1.83423 113.215 1.73637 113.215 1.61958C113.215 1.48385 113.177 1.38283 113.097 1.32601C113.018 1.26604 112.893 1.23763 112.721 1.23763H112.427V2.02678L112.424 2.02362Z" fill="#FF6B2B"></path></svg> 