<svg viewBox="0 0 97 18" fill="none" xmlns="http://www.w3.org/2000/svg" class="h-[18px] md:translate-y-px"><path d="M34.7706 0.000898826C36.6234 0.000898826 37.4779 0.33347 38.0008 0.998612C38.761 1.99632 39.1887 3.99175 37.9532 8.88593C36.7177 13.7801 35.3311 15.7991 34.048 16.8444C33.1926 17.5096 32.1476 17.828 30.2957 17.828H24.3583C22.5055 17.828 21.6034 17.5096 21.128 16.8444C20.3679 15.8467 19.9502 13.781 21.2333 8.88593C22.4679 3.99175 23.8929 2.04396 25.176 0.998612C26.0314 0.33347 27.0764 0.000898826 28.9283 0.000898826H34.7706ZM26.1258 13.4475C26.221 13.5905 26.4582 13.6381 27.2184 13.6381H29.498C30.2581 13.6381 30.543 13.5905 30.7334 13.4475C30.9707 13.2579 31.3984 12.7824 32.3481 8.88593C33.3455 4.98946 33.1559 4.51487 33.013 4.32432C32.9178 4.1814 32.6806 4.13466 31.9204 4.13466H29.6876C28.9274 4.13466 28.6426 4.1823 28.453 4.32432C28.2158 4.51398 27.7881 4.98946 26.8383 8.88593C25.7933 12.83 25.9829 13.2579 26.1258 13.4475ZM49.1632 12.022C48.9736 11.7847 48.7832 11.6894 47.6429 11.6894H45.4101C45.2882 11.6938 45.1712 11.738 45.0769 11.8153C44.9826 11.8925 44.9163 11.9986 44.888 12.1173L43.5597 17.4C43.5315 17.5187 43.465 17.6249 43.3705 17.7022C43.276 17.7795 43.1588 17.8237 43.0368 17.8278H38.4291C38.1919 17.8278 38.0491 17.6373 38.0967 17.4L42.3703 0.427848C42.3986 0.309074 42.4651 0.202877 42.5596 0.12558C42.6541 0.0482818 42.7713 0.00416139 42.8933 0H53.7233C55.4808 0 56.4305 0.237294 56.9535 0.902436C57.5231 1.71049 57.7136 2.56529 57.0963 5.0362C56.2886 8.36281 55.054 9.31288 52.9164 9.74073V9.78837C54.5787 10.2162 55.4817 10.7861 54.9111 13.3523L54.1525 17.3523C54.1049 17.5896 53.8677 17.8278 53.6305 17.8278H48.9276C48.7371 17.8278 48.5475 17.6849 48.5951 17.4476L49.2585 13.8278C49.4481 12.5451 49.3537 12.3069 49.1632 12.022ZM48.8308 7.88822C49.8281 7.88822 50.113 7.79294 50.3035 7.65093C50.6359 7.41363 50.8731 6.98579 51.1112 5.94043C51.3494 4.89508 51.3017 4.51487 51.1112 4.27758C50.9684 4.13466 50.7312 4.08792 49.7338 4.08792H47.2637C47.1419 4.09228 47.0249 4.13649 46.9306 4.21377C46.8363 4.29105 46.7699 4.39714 46.7417 4.51577L46.0283 7.46037C45.9806 7.69767 46.1235 7.88822 46.3607 7.88822H48.8308ZM72.0654 0.00503564C73.9658 0.00503564 74.9631 0.24233 75.5328 0.907471C76.1977 1.71553 76.4282 2.80348 75.9061 5.55933C75.8779 5.6781 75.8114 5.7843 75.7169 5.8616C75.6224 5.93889 75.5052 5.98301 75.3832 5.98717H70.966C70.7288 5.98717 70.5859 5.79752 70.6336 5.60697C70.8241 4.51398 70.5859 4.37196 70.4431 4.1814C70.3478 4.03849 70.1582 3.99175 69.3505 3.99175H67.0709C66.2631 3.99175 66.0259 4.03939 65.8363 4.1814C65.5515 4.4187 65.0286 5.22676 64.1741 8.8383C63.3196 12.4498 63.4615 13.3046 63.6044 13.5428C63.6996 13.6857 63.9369 13.7325 64.7446 13.7325H67.167C67.8796 13.7325 68.1644 13.6848 68.3549 13.5428C68.5921 13.3532 69.0674 12.8777 69.3523 11.5941L69.3999 11.4512H65.9801C65.7429 11.4512 65.6 11.2616 65.6477 11.0234L66.3126 8.17225C66.3408 8.05348 66.4073 7.94728 66.5018 7.86999C66.5963 7.79269 66.7135 7.74857 66.8355 7.74441H75.0507C75.2879 7.74441 75.4308 7.93406 75.3832 8.17225L74.9555 9.93039C73.9581 14.2547 72.7703 15.7746 71.5357 16.7723C70.6336 17.5328 69.3549 17.8278 67.6926 17.8278H61.7552C59.9024 17.8278 58.9958 17.4851 58.4729 16.7723C57.6651 15.727 57.2383 13.7792 58.4253 8.8374C59.6122 3.89557 60.9973 2.0472 62.2795 1.04949C63.1349 0.337606 64.1799 0.00503564 66.0327 0.00503564H72.0654ZM90.3308 17.8278H76.1287C75.8915 17.8278 75.7486 17.6373 75.7962 17.4L79.7015 0.428872C79.7298 0.310098 79.7963 0.203901 79.8907 0.126604C79.9852 0.0493058 80.1025 0.00518546 80.2244 0.00102407H96.6756C96.9613 0.00102407 97.1033 0.285956 96.9137 0.570889C96.2011 1.71152 93.5993 3.99175 90.511 3.99175H84.764C84.6422 3.9961 84.5252 4.04031 84.4309 4.11759C84.3366 4.19488 84.2702 4.30097 84.242 4.4196L83.8143 6.32064C83.7667 6.55794 83.9095 6.74849 84.1467 6.74849H91.8885C92.1266 6.74849 92.2686 6.93815 92.2218 7.17634L91.556 10.1695C91.5278 10.2881 91.4614 10.3942 91.3671 10.4715C91.2728 10.5488 91.1558 10.593 91.034 10.5973H83.2914C83.1694 10.6015 83.0521 10.6456 82.9576 10.7229C82.8632 10.8002 82.7967 10.9064 82.7684 11.0252L82.2455 13.2112C82.1978 13.4484 82.3407 13.639 82.5779 13.639H91.2703C91.5084 13.639 91.6504 13.8287 91.6027 14.0668L90.852 17.3541C90.8052 17.6391 90.568 17.8278 90.3308 17.8278ZM22.0375 0.00102407H3.10958C2.9876 0.00518546 2.87312 0.0350267 2.77864 0.112325C2.68416 0.189622 2.61768 0.295819 2.5894 0.414593L2.11418 2.13924C2.06656 2.32889 2.1618 2.47181 2.30377 2.56709C3.06393 2.80438 7.14864 2.89966 6.53135 5.18091L6.38848 5.79842L4.72621 12.0229L4.58334 12.6404C3.96605 14.9207 1.78083 15.016 0.878704 15.2542C0.689114 15.3019 0.546248 15.4915 0.498626 15.6821L0.00912644 17.4002C-0.0384957 17.6375 0.10437 17.828 0.341582 17.828H8.2738C8.39578 17.8239 8.51302 17.7797 8.6075 17.7024C8.70198 17.6251 8.76847 17.519 8.79674 17.4002L10.2378 11.88C10.2661 11.7612 10.3325 11.655 10.427 11.5777C10.5215 11.5004 10.6387 11.4563 10.7607 11.4521H15.8437C15.9655 11.4478 16.0826 11.4036 16.1769 11.3263C16.2712 11.249 16.3375 11.1429 16.3658 11.0243L17.1259 8.04572C17.1735 7.80842 17.0307 7.61787 16.7935 7.61787H11.7114C11.4742 7.61787 11.3313 7.42821 11.3789 7.19002L12.0914 4.56161C12.1197 4.44284 12.1862 4.33664 12.2807 4.25935C12.3752 4.18205 12.4924 4.13793 12.6144 4.13377H19.7374C19.8593 4.12941 19.9763 4.0852 20.0706 4.00792C20.1649 3.93064 20.1953 3.89845 20.3335 3.68544L22.3017 0.460434C22.4307 0.263186 22.2747 0.00102407 22.0375 0.00102407Z" fill="#151715"></path></svg>